<svg width="50" height="51" viewBox="0 0 50 51" fill="none" xmlns="http://www.w3.org/2000/svg">
<path fill-rule="evenodd" clip-rule="evenodd" d="M23.5574 0.0234874C21.5734 0.230387 19.9572 0.520063 18.5932 0.913189C9.58333 3.50969 2.83393 10.9117 0.932336 20.2817C0.550525 22.1631 0.450684 23.2256 0.450684 25.4094C0.450684 27.5932 0.550525 28.6557 0.932336 30.5371C2.95783 40.5178 10.4817 48.2277 20.2215 50.3033C22.0575 50.6946 23.0943 50.7969 25.2254 50.7969C27.3566 50.7969 28.3933 50.6946 30.2294 50.3033C39.9692 48.2277 47.493 40.5178 49.5185 30.5371C49.9003 28.6557 50.0002 27.5932 50.0002 25.4094C50.0002 23.2256 49.9003 22.1631 49.5185 20.2817C48.132 13.4497 44.1385 7.55938 38.3909 3.86871C35.3312 1.90406 32.0272 0.696766 28.2834 0.175203C27.4156 0.0543351 24.2394 -0.0476497 23.5574 0.0234874ZM39.0822 17.4485C38.7252 18.1008 37.9372 19.5877 37.559 20.3224C37.3863 20.6581 37.0872 21.2108 36.8944 21.5504C36.7017 21.8901 36.5433 22.2014 36.5426 22.2423C36.5419 22.2831 36.3792 22.5912 36.1811 22.9269C35.983 23.2627 35.6957 23.7938 35.5425 24.1071C35.3895 24.4205 35.12 24.9333 34.9436 25.2466C34.7674 25.56 34.4426 26.1643 34.2219 26.5896C34.0011 27.0149 33.7903 27.4027 33.7534 27.4515C33.6875 27.5386 32.9951 28.85 32.2532 30.293C32.0462 30.6959 31.7473 31.2431 31.5892 31.509C31.4311 31.775 31.3017 32.027 31.3017 32.0691C31.3017 32.1113 31.0828 32.5254 30.8153 32.9896L30.3288 33.8335H20.7279C15.4474 33.8335 11.1269 33.8058 11.1269 33.7718C11.1269 33.7379 11.3049 33.3991 11.5223 33.019C11.7396 32.6388 11.9184 32.3016 11.9194 32.2696C11.9204 32.2376 12.1118 31.8713 12.3447 31.4557C12.5776 31.04 12.8956 30.4435 13.0513 30.1302C13.207 29.8168 13.4632 29.3428 13.6207 29.0769C13.7781 28.8109 13.9069 28.5617 13.9069 28.5229C13.9069 28.4843 14.0998 28.1158 14.3355 27.7042C14.5712 27.2926 14.8172 26.8277 14.882 26.671C14.9469 26.5143 15.1312 26.1664 15.2916 25.8978C15.452 25.6292 15.6914 25.1896 15.8234 24.9211C15.9554 24.6525 16.2573 24.0847 16.4942 23.6595C16.7311 23.2342 17.1066 22.5383 17.3287 22.113C17.5508 21.6877 17.9667 20.9003 18.2528 20.3631C18.539 19.8259 18.8775 19.1849 19.0049 18.9387C19.1324 18.6925 19.4224 18.1524 19.6495 17.7385L20.0624 16.9859L29.6733 16.9653C34.9593 16.9539 39.297 16.9516 39.3126 16.9601C39.3282 16.9686 39.2246 17.1884 39.0822 17.4485Z" fill="#FF4800"/>
</svg>
