<svg width="100" height="70" viewBox="0 0 100 70" fill="none" xmlns="http://www.w3.org/2000/svg">
<path fill-rule="evenodd" clip-rule="evenodd" d="M1.72534 3.04225C-0.904704 8.00202 -0.387113 63.2029 2.324 66.9467C4.4271 69.849 6.79679 70 50 70C93.2032 70 95.5729 69.849 97.676 66.9467C100.387 63.2029 100.905 8.00202 98.2747 3.04225C96.7344 0.138427 94.5362 0 50 0C5.46384 0 3.26564 0.138427 1.72534 3.04225ZM69.8695 24.7674L50 44.8157L30.1304 24.7674L10.2609 4.7191H50H89.7391L69.8695 24.7674ZM18.4176 46.7852L6.3478 58.9636V34.6067V10.2499L18.4176 22.4283L30.4875 34.6067L18.4176 46.7852ZM93.6522 34.9874V58.9636L81.5964 46.7978L69.539 34.6335L81.1677 22.8231C87.5627 16.3265 92.9881 11.0112 93.2235 11.0112C93.4589 11.0112 93.6522 21.8007 93.6522 34.9874ZM50 49.2879C53.2427 49.2879 56.3982 47.6975 59.8467 44.3265L64.9213 39.3636L77.3013 51.929L89.6814 64.4944H50H10.3186L22.6987 51.929L35.0787 39.3636L40.1533 44.3265C43.6018 47.6975 46.7573 49.2879 50 49.2879Z" fill="#FF4800"/>
</svg>
