<svg width="50" height="51" viewBox="0 0 50 51" fill="none" xmlns="http://www.w3.org/2000/svg">
<path fill-rule="evenodd" clip-rule="evenodd" d="M23.0273 0.373074C19.5714 0.665972 16.4592 1.56454 13.4163 3.14801C12.1416 3.81135 10.3457 4.99056 9.2462 5.88604C8.37589 6.59497 6.09593 8.92322 5.40171 9.81197C3.02159 12.8594 1.20988 16.8058 0.468557 20.5582C0.08499 22.4998 0 23.4269 0 25.6695C0 27.9121 0.08499 28.8391 0.468557 30.7808C1.20988 34.5331 3.02159 38.4795 5.40171 41.5269C6.09593 42.4157 8.37589 44.7439 9.2462 45.4529C12.5854 48.1726 16.7847 50.0496 21.0614 50.734L21.399 50.788V42.5074V34.2268H18.6189H15.8389V31.2257V28.2245H18.6102H21.3815L21.4203 25.2842C21.4489 23.1065 21.4918 22.1539 21.5853 21.6114C22.2838 17.5628 24.2983 15.3819 27.9565 14.7137C29.185 14.4892 32.9831 14.5466 34.4056 14.811L34.6638 14.859V17.4805V20.102L32.4199 20.1279L30.176 20.1538L29.7278 20.3785C28.9382 20.7746 28.4144 21.5107 28.0605 22.7219C27.9024 23.2628 27.8834 23.5412 27.8527 25.7708L27.8188 28.2245H31.2102H34.6016L34.5612 28.407C34.5389 28.5074 34.3318 29.8579 34.1009 31.4082L33.681 34.2268H30.7569H27.8328V42.5118V50.7969L28.3174 50.7451C29.0737 50.6644 30.6374 50.3226 31.7261 50C34.6605 49.1304 37.8904 47.4181 40.3033 45.4529C41.1736 44.7439 43.4536 42.4157 44.1478 41.5269C46.5279 38.4795 48.3396 34.5331 49.0809 30.7808C49.4645 28.8391 49.5495 27.9121 49.5495 25.6695C49.5495 23.4269 49.4645 22.4998 49.0809 20.5582C48.3396 16.8058 46.5279 12.8594 44.1478 9.81197C43.4536 8.92322 41.1736 6.59497 40.3033 5.88604C39.2038 4.99056 37.4079 3.81135 36.1332 3.14801C33.4763 1.76545 30.892 0.940699 27.9122 0.524511C27.0287 0.401139 23.8569 0.302831 23.0273 0.373074Z" fill="#FF4800"/>
</svg>
