<svg width="51" height="52" viewBox="0 0 51 52" fill="none" xmlns="http://www.w3.org/2000/svg">
<path fill-rule="evenodd" clip-rule="evenodd" d="M23.7403 0.373157C20.2606 0.667084 17.1269 1.56881 14.063 3.15785C12.7795 3.82352 10.9712 5.00688 9.86417 5.90551C8.98785 6.61693 6.69217 8.95336 5.99317 9.84524C3.59663 12.9033 1.77242 16.8637 1.02599 20.6292C0.639775 22.5777 0.554199 23.508 0.554199 25.7585C0.554199 28.009 0.639775 28.9393 1.02599 30.8878C1.77242 34.6533 3.59663 38.6136 5.99317 41.6717C6.69217 42.5636 8.98785 44.9 9.86417 45.6114C12.8689 48.0505 16.7602 49.9071 20.46 50.6668C22.3745 51.0599 23.2886 51.147 25.4998 51.147C27.711 51.147 28.6251 51.0599 30.5396 50.6668C34.2395 49.9071 38.1307 48.0505 41.1355 45.6114C42.0118 44.9 44.3075 42.5636 45.0065 41.6717C47.403 38.6136 49.2272 34.6533 49.9736 30.8878C50.3599 28.9393 50.4454 28.009 50.4454 25.7585C50.4454 23.508 50.3599 22.5777 49.9736 20.6292C49.2272 16.8637 47.403 12.9033 45.0065 9.84524C44.3075 8.95336 42.0118 6.61693 41.1355 5.90551C40.0284 5.00688 38.2201 3.82352 36.9366 3.15785C34.2614 1.77043 31.6592 0.942778 28.6589 0.525126C27.7693 0.401321 24.5756 0.302667 23.7403 0.373157ZM32.7781 12.5463C32.8662 12.5734 33.1002 12.6387 33.298 12.6913C35.6887 13.3272 37.5712 15.2524 38.275 17.7815L38.4562 18.4327L38.4557 25.7178L38.4553 33.0029L38.2745 33.654C37.9097 34.9681 37.2843 36.0515 36.3638 36.9634C35.9024 37.4207 34.7784 38.253 34.6224 38.253C34.5966 38.253 34.423 38.324 34.2365 38.4107C33.7853 38.6205 33.1093 38.8203 32.6178 38.889C32.096 38.962 18.8237 38.962 18.3018 38.889C17.8104 38.8203 17.1344 38.6205 16.6832 38.4107C16.4966 38.324 16.323 38.253 16.2973 38.253C16.1413 38.253 15.0173 37.4207 14.5558 36.9634C13.896 36.3096 13.4642 35.6857 13.061 34.8033C12.4463 33.4578 12.4634 33.7182 12.4634 25.7178C12.4634 17.7052 12.4451 17.9802 13.0694 16.6139C14.0657 14.4338 16.1631 12.8081 18.3018 12.5584C18.5218 12.5327 18.718 12.4964 18.7379 12.4779C18.7955 12.4242 32.6002 12.4915 32.7781 12.5463ZM32.376 17.6916C32.1271 17.802 31.938 18.1095 31.938 18.404C31.938 18.6203 32.4335 19.1246 32.6461 19.1246C33.0473 19.1246 33.4576 18.7336 33.4576 18.3513C33.4576 18.1191 33.2348 17.7749 33.02 17.6753C32.7601 17.5547 32.6801 17.5568 32.376 17.6916ZM24.3801 19.2467C22.1969 19.7298 20.6231 20.9219 19.6988 22.7928C19.0091 24.189 18.8266 25.8874 19.2099 27.3425C19.6921 29.1728 20.9093 30.7041 22.5404 31.5329C24.5213 32.5393 26.2984 32.5545 28.3033 31.5822C29.9397 30.7887 31.2225 29.1921 31.7098 27.3425C31.9631 26.3808 31.9631 25.0548 31.7098 24.0931C31.3529 22.7385 30.5355 21.4628 29.463 20.5869C28.0526 19.4349 25.989 18.8907 24.3801 19.2467ZM26.3396 20.7568C26.6572 20.8083 27.1516 20.9851 27.6103 21.211C29.6476 22.215 30.7623 24.5006 30.2992 26.7248C29.9243 28.526 28.6405 29.9445 26.8195 30.5698C26.4839 30.6851 26.152 30.7198 25.4198 30.7166C24.5358 30.7126 24.4096 30.6919 23.8203 30.4547C22.5037 29.9248 21.6255 29.1314 21.0546 27.9562C20.3253 26.4548 20.3307 24.9719 21.0711 23.4434C21.5486 22.4575 22.2796 21.7304 23.3077 21.2183C24.3474 20.7005 25.1967 20.5712 26.3396 20.7568Z" fill="#FF4800"/>
</svg>
