<svg width="50" height="52" viewBox="0 0 50 52" fill="none" xmlns="http://www.w3.org/2000/svg">
<path fill-rule="evenodd" clip-rule="evenodd" d="M23.6161 0.373157C20.184 0.667084 17.0933 1.56881 14.0713 3.15785C12.8054 3.82352 11.0219 5.00688 9.93 5.90551C9.06569 6.61693 6.80145 8.95336 6.11202 9.84524C3.74832 12.9033 1.94909 16.8637 1.21288 20.6292C0.831963 22.5777 0.747559 23.508 0.747559 25.7585C0.747559 28.009 0.831963 28.9393 1.21288 30.8878C1.94909 34.6533 3.74832 38.6136 6.11202 41.6717C6.80145 42.5636 9.06569 44.9 9.93 45.6114C12.8936 48.0505 16.7315 49.9071 20.3807 50.6668C22.269 51.0599 23.1705 51.147 25.3515 51.147C27.5324 51.147 28.434 51.0599 30.3222 50.6668C33.9714 49.9071 37.8093 48.0505 40.7729 45.6114C41.6373 44.9 43.9015 42.5636 44.5909 41.6717C46.9546 38.6136 48.7538 34.6533 49.4901 30.8878C49.871 28.9393 49.9554 28.009 49.9554 25.7585C49.9554 23.508 49.871 22.5777 49.4901 20.6292C48.7538 16.8637 46.9546 12.9033 44.5909 9.84524C43.9015 8.95336 41.6373 6.61693 40.7729 5.90551C39.6811 5.00688 37.8975 3.82352 36.6316 3.15785C33.993 1.77043 31.4265 0.942778 28.4673 0.525126C27.5898 0.401321 24.4399 0.302667 23.6161 0.373157ZM30.2525 16.5224C31.9555 16.9715 33.5189 18.2296 34.4526 19.9023C34.8106 20.5436 35.2154 21.7237 35.2965 22.3626L35.3511 22.7923L35.9125 22.7436C37.0309 22.6466 38.1686 22.9943 39.0929 23.7158C41.3437 25.4728 41.5639 28.9071 39.5578 30.9646C38.9217 31.6169 38.3114 31.9825 37.4533 32.2255C36.8726 32.3899 36.7184 32.3929 29.8439 32.3724L22.8272 32.3517L22.807 25.8689L22.7869 19.3862L23.1409 18.9002C24.0824 17.6077 25.7957 16.5984 27.4571 16.3575C28.177 16.253 29.5347 16.3331 30.2525 16.5224ZM20.3425 25.962V32.3924H19.7109H19.0794L19.0996 26.0267L19.1198 19.661L19.317 19.6044C19.4254 19.5732 19.7006 19.5442 19.9283 19.5397L20.3425 19.5316V25.962ZM21.7264 19.6636L22.2356 19.7955V26.094V32.3924H21.6046H20.9735V25.962C20.9735 20.218 20.9865 19.5316 21.0953 19.5316C21.1624 19.5316 21.4463 19.591 21.7264 19.6636ZM18.5282 26.1248V32.3924H17.8971H17.266V26.4108V20.4292L17.7985 20.1472C18.0914 19.992 18.3754 19.8633 18.4296 19.8611C18.5077 19.858 18.5282 21.1628 18.5282 26.1248ZM16.635 26.6946V32.3924H16.0039H15.3729V27.4838V22.5752L15.6108 22.1881C15.8212 21.8456 16.5306 20.9967 16.6064 20.9967C16.6221 20.9967 16.635 23.5607 16.635 26.6946ZM14.7418 27.8782V32.3992L14.1305 32.3755L13.5191 32.3517L13.4986 27.9562C13.4874 25.5387 13.4952 23.515 13.5159 23.459C13.5415 23.3901 13.7451 23.3572 14.1478 23.3572H14.7418V27.8782ZM12.9275 27.8748C12.9275 31.6545 12.9136 32.1482 12.8069 32.1482C12.6518 32.1482 11.7229 31.6673 11.6469 31.5476C11.615 31.4973 11.5884 29.8381 11.5877 27.8602C11.5864 23.7944 11.53 24.1374 12.2554 23.7968C12.9959 23.4491 12.9275 23.0343 12.9275 27.8748ZM11.031 27.8952L11.0278 31.0493L10.7514 30.7263C10.1509 30.0243 9.77413 28.9249 9.77413 27.8748C9.77413 27.1188 9.90815 26.5335 10.2393 25.8435C10.4483 25.4081 10.9089 24.741 11.0007 24.741C11.0192 24.741 11.0329 26.1604 11.031 27.8952Z" fill="#FF4800"/>
</svg>
