<svg width="51" height="52" viewBox="0 0 51 52" fill="none" xmlns="http://www.w3.org/2000/svg">
<path fill-rule="evenodd" clip-rule="evenodd" d="M23.6264 0.373157C20.1705 0.667084 17.0584 1.56881 14.0154 3.15785C12.7407 3.82352 10.9448 5.00688 9.84533 5.90551C8.97502 6.61693 6.69506 8.95336 6.00084 9.84524C3.62072 12.9033 1.809 16.8637 1.06768 20.6292C0.684111 22.5777 0.599121 23.508 0.599121 25.7585C0.599121 28.009 0.684111 28.9393 1.06768 30.8878C1.809 34.6533 3.62072 38.6136 6.00084 41.6717C6.69506 42.5636 8.97502 44.9 9.84533 45.6114C12.8295 48.0505 16.6941 49.9071 20.3686 50.6668C22.27 51.0599 23.1778 51.147 25.3739 51.147C27.57 51.147 28.4778 51.0599 30.3792 50.6668C34.0537 49.9071 37.9183 48.0505 40.9025 45.6114C41.7728 44.9 44.0527 42.5636 44.747 41.6717C47.1271 38.6136 48.9388 34.6533 49.6801 30.8878C50.0637 28.9393 50.1487 28.009 50.1487 25.7585C50.1487 23.508 50.0637 22.5777 49.6801 20.6292C48.9388 16.8637 47.1271 12.9033 44.747 9.84524C44.0527 8.95336 41.7728 6.61693 40.9025 5.90551C39.803 5.00688 38.0071 3.82352 36.7324 3.15785C34.0755 1.77043 31.4911 0.942778 28.5114 0.525126C27.6278 0.401321 24.456 0.302667 23.6264 0.373157ZM37.6166 14.4335L37.9636 14.7891L37.9598 15.512C37.9562 16.2237 37.773 17.4864 37.538 18.4206C37.472 18.6825 37.289 19.6898 37.1311 20.659C36.9731 21.6282 36.8116 22.4944 36.7722 22.584C36.6848 22.7822 36.5366 23.573 36.2152 25.555C36.0809 26.3832 35.9379 27.1341 35.8975 27.2236C35.8211 27.3927 35.6565 28.2861 35.3052 30.4388C35.1919 31.1328 35.0652 31.7738 35.0235 31.8633C34.9818 31.9528 34.784 32.9782 34.5839 34.1419C34.37 35.3857 34.1731 36.3108 34.106 36.3867C34.0434 36.4577 33.9921 36.5549 33.9921 36.6027C33.9921 36.7169 33.5001 37.1568 33.1865 37.3229C32.9976 37.423 32.7661 37.4474 32.2082 37.4262L31.4773 37.3983L30.9188 36.9914C30.3763 36.5961 29.7107 36.069 29.3057 35.7137C29.1965 35.6179 28.8927 35.3772 28.6305 35.1787C28.3684 34.9803 28.1361 34.7939 28.1142 34.7646C28.0795 34.7181 27.6862 34.4062 26.5177 33.499L26.2132 33.2626L25.317 34.1149C23.0623 36.2592 23.0445 36.2743 22.6826 36.3782C22.2925 36.4901 21.8536 36.3985 21.5728 36.1468C21.3694 35.9644 20.93 34.9842 20.7654 34.3459C20.5332 33.4453 20.1574 32.193 20.0938 32.1075C20.0604 32.0627 19.9882 31.8246 19.9333 31.5784C19.7878 30.927 19.3095 29.2821 19.2175 29.1173C19.1742 29.0395 19.1386 28.9098 19.1386 28.829C19.1386 28.6329 18.4982 28.3394 17.2323 27.9554C16.6862 27.7897 16.1974 27.6191 16.1459 27.5763C16.0945 27.5334 15.612 27.3584 15.0736 27.1873C13.7681 26.7725 13.7625 26.7698 13.2619 26.3066L12.8261 25.9033L12.7969 25.2421L12.7676 24.5808L13.1532 24.1783C13.4747 23.8427 13.6799 23.72 14.3874 23.4405C14.854 23.2561 15.2472 23.0778 15.2611 23.0444C15.2749 23.0108 15.608 22.861 16.0012 22.7112C16.3943 22.5614 16.9126 22.3368 17.1529 22.2121C17.3932 22.0873 17.9187 21.8564 18.3208 21.6991C18.7228 21.5418 19.1875 21.3383 19.3533 21.247C19.5192 21.1558 19.9945 20.9467 20.4095 20.7825C20.8245 20.6183 21.2177 20.4405 21.2833 20.3875C21.3488 20.3345 21.6347 20.2072 21.9187 20.1046C22.2027 20.002 22.6852 19.7975 22.991 19.65C23.2968 19.5026 23.8287 19.2676 24.1729 19.1278C24.5172 18.988 25.0206 18.7674 25.2916 18.6376C25.5626 18.5077 26.1567 18.2495 26.6117 18.0639C27.0668 17.8782 27.4771 17.6943 27.5234 17.6549C27.5697 17.6157 27.9424 17.4511 28.3516 17.2891C28.7607 17.1272 29.259 16.9088 29.4588 16.8038C29.6585 16.6987 30.1615 16.48 30.5766 16.3177C30.9916 16.1554 31.4026 15.9755 31.49 15.9178C31.5774 15.8601 32.0421 15.6578 32.5226 15.4683C33.0032 15.2788 33.5036 15.0572 33.6346 14.9759C33.7657 14.8946 34.1231 14.7358 34.4289 14.623C34.7347 14.5102 35.1458 14.3441 35.3424 14.2537C35.6189 14.1266 35.8773 14.0881 36.4847 14.0837L37.2696 14.0779L37.6166 14.4335ZM32.1727 19.1224C31.9367 19.2974 31.7222 19.4716 31.6961 19.5096C31.6702 19.5475 31.4165 19.7369 31.1326 19.9304C30.8486 20.124 30.5805 20.3263 30.5369 20.38C30.4932 20.4338 30.2378 20.6299 29.9694 20.8158C29.7011 21.0017 29.433 21.2029 29.3737 21.2629C29.3144 21.3229 29.0448 21.5255 28.7745 21.713C28.5042 21.9006 28.2605 22.0914 28.2331 22.1369C28.2056 22.1824 27.98 22.3521 27.7317 22.5142C27.4834 22.6762 27.1551 22.9164 27.0022 23.0479C26.8493 23.1794 26.495 23.4585 26.2148 23.6681C25.5089 24.1961 24.737 24.7758 23.9728 25.3515C23.6162 25.6201 23.0931 26.0098 22.8103 26.2176C22.5276 26.4254 22.2738 26.6268 22.2465 26.6653C22.2191 26.7037 21.9932 26.8757 21.7445 27.0472C21.4958 27.2188 21.2049 27.4423 21.0979 27.5438C20.991 27.6454 20.7776 27.8082 20.6238 27.9056C20.3538 28.0766 20.3469 28.0932 20.4229 28.3857C20.6659 29.3208 20.9891 30.4089 21.0448 30.4795C21.0801 30.5243 21.2175 31.0005 21.3503 31.5377C21.483 32.0749 21.6748 32.7862 21.7764 33.1184L21.9612 33.7223L22.2616 32.7928C22.4267 32.2815 22.6309 31.7168 22.7151 31.5377C22.7993 31.3586 23.0163 30.7726 23.1974 30.2353C23.5526 29.1809 23.5028 29.2516 25.3567 27.1738C25.5409 26.9673 25.8772 26.5827 26.104 26.3191C26.3309 26.0555 27.0636 25.217 27.7323 24.4558C28.4011 23.6945 29.2649 22.7055 29.6519 22.2581C30.0389 21.8105 30.5036 21.2775 30.6845 21.0736C30.8655 20.8696 31.1361 20.5582 31.286 20.3817C31.4358 20.2051 31.8042 19.7767 32.1045 19.4298C32.4048 19.0829 32.6396 18.8002 32.6263 18.8016C32.6129 18.803 32.4089 18.9474 32.1727 19.1224Z" fill="#FF4800"/>
</svg>
