<svg width="51" height="52" viewBox="0 0 51 52" fill="none" xmlns="http://www.w3.org/2000/svg">
<path fill-rule="evenodd" clip-rule="evenodd" d="M24.041 0.371552C17.9018 0.866977 12.5764 3.31065 8.28828 7.59994C4.24716 11.6421 1.78426 16.7313 0.998084 22.6638C0.80428 24.1263 0.802374 27.3823 0.99451 28.8088C1.64979 33.6748 3.29529 37.7208 6.15851 41.5058C6.98964 42.6045 9.18804 44.8572 10.2602 45.7089C13.9539 48.6428 17.9023 50.329 22.651 51.0005C24.0431 51.1974 27.2205 51.1954 28.6478 50.9968C32.4234 50.4715 35.7266 49.267 38.7949 47.2969C44.5409 43.6074 48.5364 37.7143 49.9225 30.8843C50.3003 29.0226 50.4011 27.9425 50.4011 25.7567C50.4011 23.5708 50.3003 22.4907 49.9225 20.6291C48.5364 13.7991 44.5409 7.90597 38.7949 4.21645C35.723 2.24403 32.3657 1.0217 28.6478 0.522287C27.7307 0.399062 24.8627 0.305218 24.041 0.371552ZM16.0766 17.592C16.5506 17.7376 16.8029 18.0311 17.0081 18.6757C17.2987 19.5884 18.0843 21.4872 18.4073 22.0575C19.2808 23.6001 20.299 24.8689 20.854 25.1066C21.5566 25.4074 22.074 25.1375 22.3132 24.3456C22.4272 23.9679 22.4518 23.5832 22.4492 22.2162C22.4472 21.1255 22.4101 20.4002 22.3424 20.1218C22.1557 19.355 21.7157 18.9115 20.8306 18.5975L20.5504 18.4981L20.7711 18.2885C21.3809 17.7094 22.18 17.5418 24.319 17.5443C26.4896 17.5469 27.3207 17.7442 27.6337 18.3311C27.7596 18.5671 27.7745 18.8714 27.7787 21.2802C27.7825 23.5349 27.8043 24.0383 27.9147 24.416C28.05 24.8787 28.3468 25.2468 28.6637 25.3448C29.1486 25.4948 29.9826 24.9906 30.7252 24.0988C31.9132 22.672 32.7847 20.9741 33.5039 18.6847C33.6867 18.1029 33.7825 17.9211 33.9933 17.7563L34.2554 17.5513L37.1704 17.5438C38.7736 17.5396 40.1812 17.5637 40.2982 17.5974C40.6222 17.6904 40.7605 17.8797 40.7605 18.2297C40.7605 18.9737 40.0068 20.7511 39.1055 22.1323C38.8581 22.5115 38.14 23.4821 37.5098 24.2892C35.341 27.0667 35.3341 27.1205 36.9514 28.6491C38.5012 30.1138 39.5916 31.1914 40.0368 31.6982C40.8039 32.5715 40.9377 33.2124 40.4421 33.6397C39.9821 34.0363 39.7967 34.0587 36.9877 34.0567C34.4607 34.055 34.348 34.0482 33.8503 33.8684C33.1956 33.6318 32.7024 33.2991 31.4875 32.2744C29.8321 30.8784 29.175 30.5715 28.5513 30.9032C28.0727 31.1577 27.8938 31.6106 27.8166 32.7634C27.7607 33.5971 27.73 33.7432 27.5848 33.8637C27.1805 34.1992 24.2827 34.1192 22.8993 33.7343C19.3183 32.7382 16.6213 30.0064 13.4162 24.1289C12.2529 21.9956 10.5779 18.3812 10.5779 18.0043C10.5779 17.8101 10.7242 17.6722 11.0296 17.5783C11.3897 17.4675 15.7093 17.4793 16.0766 17.592Z" fill="#FF4800"/>
</svg>
