<svg width="51" height="51" viewBox="0 0 51 51" fill="none" xmlns="http://www.w3.org/2000/svg">
<path fill-rule="evenodd" clip-rule="evenodd" d="M23.7304 0.0235474C20.2745 0.317471 17.1624 1.21919 14.1194 2.80822C12.8447 3.47388 11.0488 4.65723 9.94932 5.55585C9.07901 6.26726 6.79905 8.60367 6.10484 9.49554C3.72472 12.5536 1.913 16.5139 1.17168 20.2794C0.788115 22.2279 0.703125 23.1582 0.703125 25.4086C0.703125 27.6591 0.788115 28.5894 1.17168 30.5378C1.913 34.3033 3.72472 38.2636 6.10484 41.3217C6.79905 42.2136 9.07901 44.55 9.94932 45.2614C12.9335 47.7005 16.7981 49.557 20.4726 50.3167C22.374 50.7098 23.2818 50.7969 25.4779 50.7969C27.674 50.7969 28.5818 50.7098 30.4832 50.3167C34.1577 49.557 38.0222 47.7005 41.0064 45.2614C41.8767 44.55 44.1567 42.2136 44.8509 41.3217C47.231 38.2636 49.0428 34.3033 49.7841 30.5378C50.1676 28.5894 50.2526 27.6591 50.2526 25.4086C50.2526 23.1582 50.1676 22.2279 49.7841 20.2794C49.0428 16.5139 47.231 12.5536 44.8509 9.49554C44.1567 8.60367 41.8767 6.26726 41.0064 5.55585C39.907 4.65723 38.111 3.47388 36.8364 2.80822C34.1794 1.42081 31.5951 0.593163 28.6154 0.175515C27.7318 0.0517107 24.56 -0.0469423 23.7304 0.0235474ZM29.4891 16.342C30.8717 16.4254 33.2862 16.7049 34.0556 16.8705C35.136 17.1031 35.938 17.6188 36.4512 18.4109C36.6754 18.757 36.7655 19.0269 36.9163 19.8046C37.4897 22.7621 37.6233 26.1454 37.2804 29.0308C36.9418 31.8794 36.8391 32.2354 36.1533 32.9381C35.402 33.7081 34.6599 33.9466 32.1103 34.2376C29.9009 34.4897 28.7028 34.5452 25.4779 34.5449C22.2281 34.5447 20.9496 34.486 18.766 34.237C16.1765 33.9418 15.5834 33.7442 14.7478 32.8983C14.047 32.1887 13.9236 31.7853 13.5905 29.1122C13.5181 28.5317 13.485 27.3175 13.4873 25.3272C13.4905 22.4367 13.5451 21.5686 13.8478 19.5965C14.0662 18.1736 15.061 17.2131 16.6751 16.8669C17.4286 16.7053 19.877 16.4262 21.2681 16.3434C22.7447 16.2555 28.0399 16.2546 29.4891 16.342ZM22.4198 25.4086C22.4198 27.5351 22.4321 29.275 22.447 29.275C22.5357 29.275 28.9464 25.4615 28.9464 25.4086C28.9464 25.3558 22.5357 21.5423 22.447 21.5423C22.4321 21.5423 22.4198 23.2821 22.4198 25.4086Z" fill="#FF4800"/>
</svg>
